<?xml version="1.0" standalone="no"?><!DOCTYPE svg PUBLIC "-//W3C//DTD SVG 1.1//EN" "http://www.w3.org/Graphics/SVG/1.1/DTD/svg11.dtd"><svg t="1590066290637" class="icon" viewBox="0 0 1024 1024" version="1.1" xmlns="http://www.w3.org/2000/svg" p-id="29859" xmlns:xlink="http://www.w3.org/1999/xlink" width="200" height="200"><defs><style type="text/css"></style></defs><path d="M800.1 128a96 96 0 0 1 86.35 138A448.08 448.08 0 0 1 921 328.78a160 160 0 0 0-225.8-225.64 447.05 447.05 0 0 1 62.86 34.49A95.68 95.68 0 0 1 800.1 128z" p-id="29860" fill="#1296db"></path><path d="M758.06 137.63a96.4 96.4 0 0 0-45.52 46.91 386.06 386.06 0 0 1 127 127 96.4 96.4 0 0 0 46.88-45.55 450.54 450.54 0 0 0-128.36-128.36zM695.2 103.14a449.18 449.18 0 0 0-366.32 0.06 160.42 160.42 0 0 1 39.83 52.61 385.21 385.21 0 0 1 286.62-0.06 160.67 160.67 0 0 1 39.87-52.61zM921 328.78a160.61 160.61 0 0 1-52.58 39.9 383 383 0 0 1 27.7 143.45c0 212.08-171.93 384-384 384s-384-171.92-384-384a382.77 382.77 0 0 1 27.67-143.38 160.66 160.66 0 0 1-52.61-39.83A446.34 446.34 0 0 0 64.1 512.13c0 247.43 200.57 448 448 448s448-200.57 448-448A446.51 446.51 0 0 0 921 328.78z" p-id="29861" fill="#1296db"></path><path d="M921 328.78a448.08 448.08 0 0 0-34.53-62.84 96.4 96.4 0 0 1-46.88 45.55 383.71 383.71 0 0 1 28.83 57.19 160.61 160.61 0 0 0 52.58-39.9zM758.06 137.63a447.05 447.05 0 0 0-62.86-34.49 160.67 160.67 0 0 0-39.87 52.61 381.34 381.34 0 0 1 57.21 28.79 96.4 96.4 0 0 1 45.52-46.91zM311.52 184.63a96.4 96.4 0 0 0-45.46-46.95 450.61 450.61 0 0 0-128.42 128.41 96.36 96.36 0 0 0 47 45.46 386 386 0 0 1 126.88-126.92z" p-id="29862" fill="#1296db"></path><path d="M127.92 224a96 96 0 0 1 138.14-86.28 447.57 447.57 0 0 1 62.82-34.48 160 160 0 0 0-225.72 225.68 447.12 447.12 0 0 1 34.48-62.83 95.66 95.66 0 0 1-9.72-42.09z" p-id="29863" fill="#1296db"></path><path d="M311.52 184.63a381.28 381.28 0 0 1 57.19-28.82 160.42 160.42 0 0 0-39.83-52.61 447.57 447.57 0 0 0-62.82 34.48 96.4 96.4 0 0 1 45.46 46.95zM155.77 368.75a381.86 381.86 0 0 1 28.82-57.2 96.36 96.36 0 0 1-47-45.46 447.12 447.12 0 0 0-34.48 62.83 160.66 160.66 0 0 0 52.66 39.83z" p-id="29864" fill="#1296db"></path><path d="M383.98 383.8m-48 0a48 48 0 1 0 96 0 48 48 0 1 0-96 0Z" p-id="29865" fill="#1296db"></path><path d="M640.03 383.8m-48 0a48 48 0 1 0 96 0 48 48 0 1 0-96 0Z" p-id="29866" fill="#1296db"></path><path d="M466.765382 576.051358m22.627417-22.627417l0 0q22.627417-22.627417 45.254834 0l90.509668 90.509668q22.627417 22.627417 0 45.254834l0 0q-22.627417 22.627417-45.254834 0l-90.509668-90.509668q-22.627417-22.627417 0-45.254834Z" p-id="29867" fill="#1296db"></path><path d="M421.511409 711.804254m-22.627417-22.627417l0 0q-22.627417-22.627417 0-45.254834l90.509668-90.509668q22.627417-22.627417 45.254834 0l0 0q22.627417 22.627417 0 45.254834l-90.509668 90.509668q-22.627417 22.627417-45.254834 0Z" p-id="29868" fill="#1296db"></path><path d="M512.01 576.05m-48 0a48 48 0 1 0 96 0 48 48 0 1 0-96 0Z" p-id="29869" fill="#1296db"></path></svg>