<?xml version="1.0" standalone="no"?><!DOCTYPE svg PUBLIC "-//W3C//DTD SVG 1.1//EN" "http://www.w3.org/Graphics/SVG/1.1/DTD/svg11.dtd"><svg t="1590066754340" class="icon" viewBox="0 0 1024 1024" version="1.1" xmlns="http://www.w3.org/2000/svg" p-id="35308" xmlns:xlink="http://www.w3.org/1999/xlink" width="200" height="200"><defs><style type="text/css"></style></defs><path d="M951.296 185.856H72.704c-27.648 0-50.176 22.528-50.176 50.176v133.12h978.944v-133.12c0-27.648-22.528-50.176-50.176-50.176zM830.464 668.16h-10.24c0 0.512-0.512 1.536-0.512 1.536l-2.56 11.264s-5.632 23.552-6.144 24.576h9.216c0.512-1.024 1.536-7.68 1.536-7.68s1.024-4.608 1.024-5.12l0.512-0.512h0.512c5.12 0 10.752 0 15.36-3.072 3.072-2.048 5.12-5.632 6.144-9.728 0-1.024 0.512-2.048 0.512-3.584 0-1.536-0.512-3.072-1.024-4.096-2.048-3.072-6.656-3.072-11.776-3.072 0-0.512-2.56-0.512-2.56-0.512z m6.144 11.776c-0.512 2.56-2.048 4.608-4.096 5.632-1.536 1.024-3.584 1.024-6.144 1.024h-1.536v-0.512l2.56-11.264v-1.024h1.024l5.12 0.512c2.56 0.512 3.584 2.56 3.072 5.632zM840.704 744.448h-2.048l7.68-24.576h2.56l0.512-2.56v3.072c0 1.536 1.536 3.584 5.12 3.072h4.096l1.536-4.608h-1.536c-1.024 0-1.536 0-1.536-0.512v-3.072h-7.68c-2.56 0-10.24 0-11.264 0.512-2.048 0.512-3.584 2.048-3.584 2.048l0.512-2.56h-7.168l-1.536 5.12-7.68 25.088h-1.536l-1.536 4.608h14.336l-0.512 1.536h7.168l0.512-1.536h2.048l1.536-5.632z m-8.704 0h-5.632l1.536-5.632h5.632l-1.536 5.632z m3.072-10.752s-2.048 0-3.072 0.512c-1.024 0.512-3.584 1.536-3.584 1.536l2.048-6.656h5.632l-1.024 4.608z m0-9.216c-1.024 0.512-3.584 1.536-3.584 1.536l2.048-6.144h5.632l-1.536 4.608h-2.56zM808.448 736.768c0 0.512 0 0.512-0.512 0.512h-2.56v-2.56H798.72l-0.512 13.312c0 1.024 0 1.536 0.512 2.048 0.512 0.512 3.072 0.512 5.632 0.512h4.096l1.536-5.12H805.376s-0.512 0-0.512-0.512c0 0-0.512 0-0.512-1.024v-3.584h3.584c2.048 0 3.072-0.512 3.584-1.536 0.512-0.512 1.024-1.536 1.024-2.048l0.512-3.072h-5.12l0.512 3.072zM840.704 695.296c-0.512 3.072-1.536 8.192 3.584 9.728 1.536 0.512 3.072 1.024 4.096 1.024 1.536 0 3.072-1.024 4.096-2.048 0 0.512 0 1.024-0.512 1.536l0.512 0.512H861.184c0.512-3.072 1.024-6.144 2.56-12.288 0.512-3.072 1.536-5.632 2.048-8.704v-0.512c-4.096 0.512-5.12 1.024-8.704 1.536h-0.512v1.024c-0.512-1.024-1.536-1.536-2.56-2.048-1.536-0.512-5.632 0-8.704 3.072-2.56 1.024-3.584 4.096-4.608 7.168z m8.192 0c1.024-3.584 1.536-6.656 4.096-6.656 1.536 0 2.56 1.536 2.048 3.584 0 0.512-0.512 1.024-0.512 2.048s-0.512 2.048-0.512 3.072c-0.512 0.512-0.512 1.536-1.024 2.048-0.512 1.024-2.048 1.536-3.072 1.536 0 0-1.536 0-2.048-2.048 0.512-1.024 1.024-2.048 1.024-3.584zM763.392 694.784c-0.512 3.072-1.536 8.192 3.584 10.24 1.536 0.512 3.584 1.024 5.12 1.024 3.584 0 7.168-1.024 9.728-4.096 2.048-2.56 3.072-5.632 3.584-7.168 1.024-4.608 0-7.168-1.024-8.192-1.536-2.048-4.608-2.56-7.168-2.56-1.536 0-6.144 0-9.216 3.072-2.56 2.048-3.584 4.608-4.608 7.68z m8.192 0c1.024-3.584 1.536-6.656 4.096-6.656 2.048 0 2.048 2.048 1.024 5.632 0 0.512-1.024 3.584-2.048 5.12-0.512 1.024-1.536 1.536-2.56 1.536 0 0-1.536 0-1.536-2.048 0.512-1.024 1.024-2.048 1.024-3.584zM768 730.112h4.608l-1.024 4.096h-4.608l-1.536 5.12h4.608l-2.56 8.704c-0.512 1.024 0 1.536 0.512 2.048 0.512 0.512 0.512 1.024 1.536 1.024s1.536 0.512 2.048 0.512h9.216l1.536-5.12-4.096 0.512c-0.512 0-3.072 0-2.56-1.024l2.048-6.656h8.192l1.536-4.608h-8.192l1.024-4.096h7.68l1.536-4.608h-19.456l-2.048 4.096zM784.384 714.752h-8.192l-2.048 3.584c-0.512 1.024-1.024 1.536-1.024 1.536-0.512 0-1.024 0.512-1.536 0.512h-1.024l-1.536 4.608h3.584c1.536 0 3.072-0.512 3.584-1.024 0.512-0.512 1.024 0 1.536-0.512l1.024-1.024h10.752l1.536-5.12h-8.192l1.536-2.56zM761.344 687.616c-2.048 0.512-3.072 0.512-4.096 1.024-1.024 0-2.56 0.512-4.096 0.512 0 1.536-0.512 2.56-0.512 4.096 0 1.536-0.512 3.072-1.024 5.632-0.512 2.048-0.512 2.56-1.024 3.072 0 0.512-0.512 1.024-1.024 3.072h8.192c0.512-1.536 0.512-2.048 0.512-3.072s0.512-2.048 1.024-5.12c0.512-1.536 0.512-3.072 1.024-4.608 0.512-1.024 1.024-2.56 1.024-4.608zM704 705.536c4.096 0 8.192-1.024 11.264-2.56 4.608-2.56 6.144-7.168 7.168-11.264l0.512-2.048s4.608-18.432 5.632-20.992h-8.704c-0.512 1.024-4.608 20.992-4.608 20.992-1.024 4.096-1.536 6.656-4.096 8.704-1.536 1.024-2.56 1.536-4.608 1.536-3.072 0-4.608-1.536-4.608-4.096v-1.024l1.024-5.12s4.608-17.92 5.12-20.48h-10.24l-0.512 1.536-4.608 19.968-0.512 1.536-0.512 5.632c0 1.536 0.512 3.072 1.024 4.096 2.048 3.072 7.68 3.584 11.264 3.584zM761.344 681.984c-1.536-1.024-4.608-0.512-6.656 0.512-2.048 1.536-2.56 3.584-0.512 4.608 1.536 1.024 4.608 0.512 6.656-0.512 2.048-2.048 2.048-3.584 0.512-4.608z" p-id="35309" fill="#1296db"></path><path d="M724.48 705.024h8.192l0.512-0.512c0.512-2.048 0.512-2.56 1.536-6.656 0.512-2.048 1.536-6.144 1.536-7.68 1.024-0.512 1.536-0.512 2.56-0.512h0.512l-17.92 77.824c-2.048 8.704 3.072 15.872 11.776 15.872h3.584c-8.704 0-13.824-7.168-11.776-15.872l14.336-61.952h6.144l0.512-0.512c0.512-3.072 0.512-4.096 1.536-8.704l0.512-2.048c1.024-4.096 1.536-6.656 0.512-8.192-0.512-2.048-2.56-2.56-4.096-2.56l9.216-38.912c2.048-7.68 9.216-14.336 16.896-15.36h-3.072c-7.68 1.024-14.848 7.68-16.896 15.36l-9.216 39.424c-0.512 0-1.024 0.512-1.536 0.512-0.512 0.512-1.536 0.512-2.048 1.024l0.512-2.048-0.512-0.512c-4.096 1.024-4.608 1.024-8.192 1.536h-0.512c-0.512 3.584-1.024 6.144-2.56 12.8-1.024 2.56-1.536 5.12-2.048 7.68zM845.824 729.088h8.192l-1.024 4.096h-8.704l-1.024 4.096h7.168l-5.632 7.68c-0.512 0.512-0.512 1.024-1.024 1.024s-1.024 0.512-1.536 0.512h-2.048l-1.536 4.608h5.632c2.56 0 4.608-1.536 5.632-3.072l4.096-5.12 1.024 5.12c0 1.024 1.024 1.536 1.536 2.048 0.512 0 1.024 0.512 2.048 0.512h4.608l1.536-5.12h-1.024c-0.512 0-1.536 0-2.048-0.512 0 0 0-0.512-0.512-1.024l-1.024-5.12h-3.584l1.536-1.536h8.704l1.536-4.096H860.16l1.024-4.096h7.68l1.536-4.608h-23.04l-1.536 4.608z" p-id="35310" fill="#1296db"></path><path d="M22.528 839.168c0 27.648 22.528 50.176 50.176 50.176h878.592c27.648 0 50.176-22.528 50.176-50.176V461.312H22.528v377.856z m641.536-71.68l28.672-122.88c2.048-8.704 10.752-15.872 18.944-15.872h185.344c8.704 0 13.824 7.168 11.776 15.872l-28.672 122.88c-1.536 7.68-8.704 14.336-16.384 15.36h-61.952c-8.704 0-13.824-7.168-11.776-15.872l3.584-16.384h2.048l1.536-5.632h-2.048l3.072-11.776h11.264c0.512 0 1.536-0.512 2.56-1.024s1.536-1.024 2.048-1.536c0.512-0.512 1.024-2.048 2.048-4.096l3.584-12.8h-11.264s-3.584 0.512-5.12 1.024c-0.512 0-0.512 0.512-1.024 0.512l2.56-11.264h1.024l0.512-0.512c0.512-3.072 0.512-4.096 1.536-8.704l0.512-2.048c1.024-4.096 1.536-6.144 1.024-7.68l9.728-41.472c2.048-7.68 8.704-14.336 16.384-15.36h-3.072c-7.68 1.024-14.848 7.68-16.896 15.36l-9.216 39.424c-0.512-0.512-1.536-0.512-2.048-0.512-1.024 0-3.072 0.512-5.12 1.024-0.512 0.512-1.536 0.512-2.048 1.024l0.512-2.048-0.512-0.512c-4.096 1.024-4.608 1.024-8.192 1.536h-0.512c-0.512 3.584-0.512 6.144-2.56 12.8l-1.536 7.68v0.512h7.68v-0.512c0.512-2.048 0.512-2.56 1.536-6.656 0.512-2.048 1.536-6.144 1.536-7.68 0.512-0.512 1.536-0.512 2.56-0.512 1.536 0 1.536 1.536 1.536 2.048 0 1.024-0.512 4.608-1.536 7.168l-0.512 2.048c-0.512 1.536-0.512 2.56-1.024 4.096h4.096l-2.048 9.216h-6.144l-9.728 31.744c-0.512 1.024-0.512 2.048-0.512 2.56 0 0.512 0.512 1.024 1.024 1.536 0.512 0.512 1.536 0.512 2.048 0.512H788.992l-3.584 16.384c-2.048 8.704 3.072 15.36 11.776 15.36h-123.392c-6.144 1.024-11.264-5.632-9.728-14.336z m128.512-23.552l3.072-9.728-3.072 12.288c-0.512 0-0.512-0.512-0.512-0.512 0-0.512 0-1.024 0.512-2.048z m4.096-14.336z m12.288-2.56l-0.512 2.048h-8.192l0.512-2.048h8.192z m-7.68-3.584l1.024-3.584h9.216l-1.024 2.56h-6.144c-1.536 0.512-2.56 0.512-3.072 1.024zM297.472 552.96c0-8.704 7.168-15.36 15.872-15.36H343.04c8.704 0 15.872 7.168 15.872 15.36v45.568c0 8.704-7.168 15.36-15.872 15.36h-29.696c-8.704 0-15.872-7.168-15.872-15.36V552.96z m-106.496 0c0-8.704 7.168-15.36 15.872-15.36h29.696c8.704 0 15.872 7.168 15.872 15.36v45.568c0 8.704-7.168 15.36-15.872 15.36h-30.208c-8.704 0-15.872-7.168-15.872-15.36l0.512-45.568z m-107.52 0c0-8.704 7.168-15.36 15.872-15.36h29.696c8.704 0 15.872 7.168 15.872 15.36v45.568c0 8.704-7.168 15.36-15.872 15.36h-30.208c-8.704 0-15.872-7.168-15.872-15.36l0.512-45.568z" p-id="35311" fill="#1296db"></path><path d="M864.256 717.312c0 0.512-0.512 0.512-0.512 0.512h-2.048l-1.536 4.608h4.608c3.072 0 4.608-1.536 5.632-3.072l20.48-36.352-0.512-0.512c-4.096 0.512-4.608 1.024-8.192 1.536-2.56 6.144-2.56 4.608-4.608 9.216v-0.512l-0.512-10.24-0.512-0.512c-4.096 0.512-4.096 1.024-7.68 1.536h-0.512v0.512c0.512 2.56 0.512 2.048 1.024 5.632 0 1.536 0.512 3.584 0.512 5.632 0.512 3.072 0.512 4.608 1.024 9.216-2.56 4.096-3.072 5.632-5.632 9.216l-1.024 3.584z" p-id="35312" fill="#1296db"></path></svg>