<?xml version="1.0" standalone="no"?><!DOCTYPE svg PUBLIC "-//W3C//DTD SVG 1.1//EN" "http://www.w3.org/Graphics/SVG/1.1/DTD/svg11.dtd"><svg t="1589950515252" class="icon" viewBox="0 0 1024 1024" version="1.1" xmlns="http://www.w3.org/2000/svg" p-id="8410" xmlns:xlink="http://www.w3.org/1999/xlink" width="200" height="200"><defs><style type="text/css"></style></defs><path d="M99 418.3c19.9 0 36-16.1 36-36V177.7c0-19 18.2-34.7 39.4-34.7h199.8c19.9 0 36-16.1 36-36s-16.1-36-36-36H174.4C113.1 71 63 118.6 63 177.7v204.6c0 19.9 16.1 36 36 36zM849.6 71H650.7c-19.9 0-36 16.1-36 36s16.1 36 36 36h198.8c21.2 0 39.4 15.6 39.4 34.7v204.6c0 19.9 16.1 36 36 36s36-16.1 36-36V177.7C961 118.6 910.9 71 849.6 71zM925 612.9c-19.9 0-36 16.1-36 36v206.6c0 19-18.2 35.5-39.4 35.5H650.7c-19.9 0-36 16.1-36 36s16.1 36 36 36h198.8c61.3 0 111.4-48.5 111.4-107.5V648.9c0.1-19.9-16-36-35.9-36zM374.3 891H174.4c-21.2 0-39.4-16.5-39.4-35.5V648.9c0-19.9-16.1-36-36-36s-36 16.1-36 36v206.6c0 59 50.1 107.5 111.4 107.5h199.8c19.9 0 36-16.1 36-36s-16.1-36-35.9-36zM682.1 729.2c44.8 0 82.8-30.2 95.4-70.2h31.1c0.6 0 1.3-0.1 1.9-0.1 9.9 0 23.1-3.3 33.5-12.8 12.1-10.9 14.9-26.3 13.9-38.3v-55.3c0-36.1-12.6-71.5-35.4-99.8-19.4-24.1-45.6-42.2-74.7-51.8-29.2-83.5-108.6-140.9-198-140.9h-77.3c-89.3 0-168.7 57.4-198 141.1-28.8 9.5-54.5 27.3-73.9 51-23.1 28.3-35.6 64.1-35.6 100.5v53c-1 7.8-0.7 24.8 11.2 37.6 11 11.9 25.3 16 37.1 16 1.9 0 3.7-0.2 5.5-0.2h26.1c12.7 40 50.7 70.2 95.4 70.2s82.8-30.2 95.4-70.2h150.9c12.7 40 50.7 70.2 95.5 70.2z m0-60.2c-22 0-39.9-17.9-39.9-39.9s17.9-39.9 39.9-39.9c21.9 0 39.7 17.7 39.9 39.6v0.5c0 21.9-17.9 39.7-39.9 39.7zM225 552.6c0-46.2 32.6-87 77.8-96.9 6.8-1.5 12.4-5.2 16.6-10.2 4-3.7 7.1-8.7 8.6-14.4C345.8 365.8 405.2 320 472.5 320h77.3c67.3 0 126.8 45.8 144.6 111.1 2 7.4 6.6 13.5 12.6 17.3 3.7 3.5 8.5 6.2 13.9 7.4 44.6 10.3 77.1 51 77.1 96.7V599h-20.7c-12.9-41-50.7-69.6-95.2-69.6S599.7 558 586.8 599H435.6c-12.9-41-50.7-69.6-95.2-69.6S257.9 558 245.1 599H225v-46.4zM340.3 669c-22 0-39.9-17.9-39.9-39.9s17.9-39.9 39.9-39.9 39.9 17.9 39.9 39.9-17.9 39.9-39.9 39.9z" p-id="8411" fill="#1296db"></path></svg>