<?xml version="1.0" standalone="no"?><!DOCTYPE svg PUBLIC "-//W3C//DTD SVG 1.1//EN" "http://www.w3.org/Graphics/SVG/1.1/DTD/svg11.dtd"><svg t="1590066638942" class="icon" viewBox="0 0 1458 1024" version="1.1" xmlns="http://www.w3.org/2000/svg" p-id="32867" xmlns:xlink="http://www.w3.org/1999/xlink" width="284.765625" height="200"><defs><style type="text/css"></style></defs><path d="M1339.08 1024H118.152C0 1024 0 1024 0 905.84V118.152C0 0 0 0 118.152 0h1220.928c118.92 0 118.92 0 118.16 118.152v787.688c0.76 118.16 0.76 118.16-118.16 118.16z m0-974.664S135.672 46.688 78.24 46.688c-33.24 0-33.24 0-33.24 71.464v787.688c0 78.16 0 74.16 67.816 74.16h1220.928c78.256 0 87.256 0 87.256-74.16V118.152c0-70.152 6.504-68.816-81.92-68.816z m-23.632 626.744h-346.584a23.616 23.616 0 0 1-23.624-23.632 23.6 23.6 0 0 1 23.624-23.632h346.584a23.624 23.624 0 1 1 0 47.264z m0-123.08h-346.584a23.616 23.616 0 0 1-23.624-23.632 23.6 23.6 0 0 1 23.624-23.632h346.584a23.624 23.624 0 1 1 0 47.264z m-157.544-121.344h-189.048a23.616 23.616 0 0 1-23.624-23.632 23.616 23.616 0 0 1 23.624-23.632h189.048a23.648 23.648 0 0 1 23.632 23.632 23.648 23.648 0 0 1-23.632 23.632zM766.392 715.696c0 45.728-35.84 81.568-81.608 81.568-45.728 0-81.568-35.84-81.568-81.568v-11.152H349.104v11.152c0 45.728-35.8 81.568-81.568 81.568s-81.608-35.84-81.608-81.568v-11.152h-34.776V519.8c0-42.768 28.632-79.32 67.824-90.072l23.16-101.768c16.464-53.8 54.352-64.752 83.296-64.752H626.8c42.736 0 74.672 23.864 85.384 63.88L734.4 430.16c38.552 11.656 66.752 48.128 66.752 89.64v184.752h-34.768v11.144h0.008z m-115.912 0c0 19.224 15.088 34.304 34.304 34.304 19.256 0 34.344-15.08 34.344-34.304v-11.176H650.48v11.176z m-417.288 0c0 19.224 15.088 34.304 34.344 34.304 19.224 0 34.304-15.08 34.304-34.304v-11.176h-68.648v11.176z m433.04-377.576c-4.84-17.96-18.192-27.648-39.424-27.648H325.44c-20.832 0-31 8.032-37.656 29.656l-19.336 85.112h416.376l-18.592-87.12z m87.664 181.68c0-23.472-18.16-43.712-41.312-46l-12.92-1.304H257.736l-0.08 0.2-17.6 1.144c-23.712 1.536-41.592 21.312-41.592 45.96v137.416h551.072v0.04h4.368V519.8h-0.008zM661.584 611.368c-25.52 0-46.352-20.872-46.352-46.352 0-25.488 20.832-46.36 46.352-46.36 25.488 0 46.352 20.872 46.352 46.36 0 25.48-20.872 46.352-46.352 46.352z m0-69.552a23.264 23.264 0 0 0-23.192 23.2 23.224 23.224 0 0 0 23.192 23.16c12.72 0 23.16-10.4 23.16-23.16 0-12.768-10.44-23.2-23.16-23.2z m-370.928 69.552c-25.48 0-46.312-20.872-46.312-46.352 0-25.488 20.832-46.36 46.312-46.36 25.52 0 46.4 20.872 46.4 46.36 0 25.48-20.88 46.352-46.4 46.352z m0-69.552a23.256 23.256 0 0 0-23.16 23.2 23.224 23.224 0 0 0 23.16 23.16c12.8 0 23.24-10.4 23.24-23.16 0-12.768-10.44-23.2-23.24-23.2z" p-id="32868" fill="#1296db"></path></svg>