<?xml version="1.0" standalone="no"?><!DOCTYPE svg PUBLIC "-//W3C//DTD SVG 1.1//EN" "http://www.w3.org/Graphics/SVG/1.1/DTD/svg11.dtd"><svg t="1589949625950" class="icon" viewBox="0 0 1486 1024" version="1.1" xmlns="http://www.w3.org/2000/svg" p-id="4654" xmlns:xlink="http://www.w3.org/1999/xlink" width="290.234375" height="200"><defs><style type="text/css"></style></defs><path d="M186.417799 221.019697a21.626186 21.626186 0 0 0-21.986623 21.986623v549.521398a22.05871 22.05871 0 0 0 21.986623 21.626186h1099.042795a21.626186 21.626186 0 0 0 21.986623-21.626186V243.00632a21.626186 21.626186 0 0 0-21.986623-21.986623z m0-65.959868h1099.042795a87.946492 87.946492 0 0 1 87.946492 87.946491v549.521398a87.946492 87.946492 0 0 1-87.946492 87.946491H186.417799a87.946492 87.946492 0 0 1-87.946491-87.946491V243.00632a87.946492 87.946492 0 0 1 87.946491-87.946491z" fill="#1296db" p-id="4655"></path><path d="M241.348313 353.227784a55.002601 55.002601 0 1 0 54.930513-54.930514A55.002601 55.002601 0 0 0 241.348313 353.227784zM1120.596966 353.227784a55.002601 55.002601 0 1 0 55.002601-54.930514 55.002601 55.002601 0 0 0-55.002601 54.930514zM241.348313 682.594603a55.002601 55.002601 0 1 0 54.930513-54.930513 55.002601 55.002601 0 0 0-54.930513 54.930513zM1120.596966 682.594603a55.002601 55.002601 0 1 0 55.002601-54.930513 55.002601 55.002601 0 0 0-55.002601 54.930513z" fill="#1296db" opacity=".5" p-id="4656"></path><path d="M730.460563 352.867347h65.959868v329.727256h-65.959868zM840.32159 352.867347h65.959868v329.727256h-65.959868zM950.254704 352.867347h65.959869v329.727256h-65.959869z" fill="#1296db" p-id="4657"></path><path d="M490.698242 396.480157h0.360437a12.975712 12.975712 0 0 1 13.047799 13.047799v57.66983h9.803871v10.452657a15.859203 15.859203 0 0 1-15.859203 15.931291H461.358716v23.93298h25.951424a16.868425 16.868425 0 0 1 17.300949 16.796338v77.205485a13.119886 13.119886 0 0 1-26.239773 0v-67.689963H461.358716a266.07418 266.07418 0 0 1-9.010911 63.148464 14.417458 14.417458 0 0 1-22.707496 7.208729A14.417458 14.417458 0 0 1 425.315072 598.324564a278.184845 278.184845 0 0 0 10.09222-85.279262V414.862415a12.903625 12.903625 0 0 1 12.975712-12.975712h0.865048a12.903625 12.903625 0 0 1 12.975712 12.975712v52.335371h16.219639v-57.66983a12.471101 12.471101 0 0 1 12.254839-13.047799z m108.130933 134.22653h2.739317a13.624497 13.624497 0 0 1 13.624497 13.624498v11.029355h25.663075a13.408236 13.408236 0 0 1 0 26.744384h-25.663075v28.114042a15.066243 15.066243 0 1 1-30.060399 0v-28.114042h-63.148465a13.408236 13.408236 0 0 1 0-26.744384h16.868426a14.922069 14.922069 0 0 1 1.081309-22.563321 85.928047 85.928047 0 0 0 9.515522-8.794649h-13.696585A16.652164 16.652164 0 0 1 519.028547 507.134144V430.505357a16.724251 16.724251 0 0 1 16.72425-16.724251h14.994156c0.937135-2.955579 1.802182-6.127419 2.523055-9.371347a12.903625 12.903625 0 0 1 14.417458-10.092221l7.208729 0.865048a12.975712 12.975712 0 0 1 10.741006 17.156774c0 0.504611 0 0.865047-0.504611 1.369659h44.838293a16.652164 16.652164 0 0 1 16.724251 16.724251v76.5567a16.652164 16.652164 0 0 1-16.724251 16.72425h-46.856737a106.256663 106.256663 0 0 1-27.176908 31.790494h28.834915v-11.101442a13.55241 13.55241 0 0 1 13.624498-13.480323z m-51.542411-72.880248h21.626186v-19.247306h-21.626186z m21.626186 21.626186h-21.626186v19.535656h17.445123a69.780495 69.780495 0 0 0 4.036888-19.535656z m49.45188 19.535656v-19.535656h-23.14002a126.585278 126.585278 0 0 1-2.595142 19.535656z m0-60.409148h-22.851671v19.247306h22.707496zM31.285955 175.676793A31.430058 31.430058 0 0 1 0.000072 144.174648V62.571838A62.499679 62.499679 0 0 1 62.571838 0.000072h85.063a31.285883 31.285883 0 0 1 0 62.571766H62.571838V144.174648a31.285883 31.285883 0 0 1-31.285883 31.285883zM147.634838 1024H62.571838A62.499679 62.499679 0 0 1 0.000072 961.428234V879.464987a31.285883 31.285883 0 0 1 62.571766 0v81.746985h85.063a31.285883 31.285883 0 0 1 0 62.571766zM1455.081983 175.676793a31.430058 31.430058 0 0 1-31.285883-31.502145V62.571838h-85.063a31.285883 31.285883 0 0 1 0-62.571766h85.063a62.499679 62.499679 0 0 1 62.571766 62.571766V144.174648a31.213796 31.213796 0 0 1-31.285883 31.285883zM1423.7961 1024h-85.063a31.285883 31.285883 0 0 1 0-62.571766h85.063V879.464987a31.285883 31.285883 0 0 1 62.571766 0v81.746985a62.499679 62.499679 0 0 1-62.571766 62.571766z" fill="#1296db" p-id="4658"></path></svg>