<?xml version="1.0" standalone="no"?><!DOCTYPE svg PUBLIC "-//W3C//DTD SVG 1.1//EN" "http://www.w3.org/Graphics/SVG/1.1/DTD/svg11.dtd"><svg t="1589950547272" class="icon" viewBox="0 0 1024 1024" version="1.1" xmlns="http://www.w3.org/2000/svg" p-id="8859" xmlns:xlink="http://www.w3.org/1999/xlink" width="200" height="200"><defs><style type="text/css"></style></defs><path d="M960.08 704.07c0-247.42-200.58-448-448-448s-447.9 200.48-448 447.81H64v64h896v-63.81z m-448-384c212 0 383.89 171.82 384 383.81h-768c0.1-211.99 171.98-383.81 384-383.81z" p-id="8860" fill="#1296db"></path><path d="M64 831.58m32 0l832 0q32 0 32 32l0 0q0 32-32 32l-832 0q-32 0-32-32l0 0q0-32 32-32Z" p-id="8861" fill="#1296db"></path><path d="M512 208.07m-48 0a48 48 0 1 0 96 0 48 48 0 1 0-96 0Z" p-id="8862" fill="#1296db"></path></svg>