<?xml version="1.0" standalone="no"?><!DOCTYPE svg PUBLIC "-//W3C//DTD SVG 1.1//EN" "http://www.w3.org/Graphics/SVG/1.1/DTD/svg11.dtd"><svg t="1589950104805" class="icon" viewBox="0 0 1024 1024" version="1.1" xmlns="http://www.w3.org/2000/svg" p-id="5698" xmlns:xlink="http://www.w3.org/1999/xlink" width="200" height="200"><defs><style type="text/css"></style></defs><path d="M942.833858 768.559743h-159.65016v-31.930032h159.65016c26.407104 0 47.895048-21.487944 47.895049-47.895048v-510.880514c0-26.407104-21.487944-47.895048-47.895049-47.895048h-175.615176v-31.930032h175.615176c44.017001 0 79.82508 35.810015 79.825081 79.82508v510.880514c0 44.015065-35.80808 79.82508-79.825081 79.82508zM623.533537 768.559743h-542.810546c-44.015065 0-79.82508-35.810015-79.82508-79.82508v-510.880514c0-44.015065 35.810015-79.82508 79.82508-79.82508h175.615177v31.930032h-175.615177c-26.407104 0-47.895048 21.487944-47.895048 47.895048v510.880514c0 26.407104 21.487944 47.895048 47.895048 47.895048h542.810546v31.930032z" fill="#1296db" p-id="5699"></path><path d="M799.148714 1024h-31.930032v-351.230353c0-26.407104-21.487944-47.895048-47.895048-47.895048H512.769224c7.887686 62.902163 61.719784 111.755112 126.729329 111.755112h31.930032v31.930032h-31.930032c-88.030131 0-159.650161-71.62003-159.65016-159.65016a15.959211 15.959211 0 0 1 15.965016-15.965016h223.510225c44.017001 0 79.82508 35.810015 79.82508 79.82508v351.230353zM272.303184 752.594727h31.930032v271.405273h-31.930032zM320.198232 225.749197c-44.01313 0-79.82508-35.810015-79.82508-79.82508v-63.860064c0-44.017001 35.81195-79.82508 79.82508-79.82508 44.015065 0 79.82508 35.80808 79.825081 79.82508v63.860064c0 44.015065-35.810015 79.82508-79.825081 79.82508z m0-191.580192c-26.407104 0-47.895048 21.487944-47.895048 47.895048v63.860064c0 26.407104 21.487944 47.895048 47.895048 47.895048s47.895048-21.487944 47.895048-47.895048v-63.860064c0-26.405169-21.487944-47.895048-47.895048-47.895048z" fill="#1296db" p-id="5700"></path><path d="M447.918361 225.749197c-44.01313 0-79.82508-35.810015-79.825081-79.82508v-63.860064c0-44.017001 35.81195-79.82508 79.825081-79.82508 44.017001 0 79.82508 35.80808 79.82508 79.82508v63.860064c0 44.015065-35.80808 79.82508-79.82508 79.82508z m0-191.580192c-26.407104 0-47.895048 21.487944-47.895048 47.895048v63.860064c0 26.407104 21.487944 47.895048 47.895048 47.895048s47.895048-21.487944 47.895048-47.895048v-63.860064c0-26.405169-21.487944-47.895048-47.895048-47.895048z" fill="#1296db" p-id="5701"></path><path d="M575.638489 225.749197c-44.01313 0-79.82508-35.810015-79.82508-79.82508v-63.860064c0-44.017001 35.810015-79.82508 79.82508-79.82508 44.017001 0 79.82508 35.80808 79.82508 79.82508v63.860064c0 44.015065-35.80808 79.82508-79.82508 79.82508z m0-191.580192c-26.405169 0-47.895048 21.487944-47.895048 47.895048v63.860064c0 26.407104 21.489879 47.895048 47.895048 47.895048 26.407104 0 47.895048-21.487944 47.895048-47.895048v-63.860064c0-26.405169-21.487944-47.895048-47.895048-47.895048z" fill="#1296db" p-id="5702"></path><path d="M703.358618 225.749197c-44.01313 0-79.82508-35.810015-79.825081-79.82508v-63.860064c0-44.017001 35.81195-79.82508 79.825081-79.82508 44.017001 0 79.82508 35.80808 79.82508 79.82508v63.860064c0 44.015065-35.80808 79.82508-79.82508 79.82508z m0-191.580192c-26.405169 0-47.895048 21.487944-47.895049 47.895048v63.860064c0 26.407104 21.489879 47.895048 47.895049 47.895048 26.407104 0 47.895048-21.487944 47.895048-47.895048v-63.860064c0-26.405169-21.487944-47.895048-47.895048-47.895048zM384.058296 608.909583h-287.370288a15.961146 15.961146 0 0 1-15.965017-15.965016v-303.335305a15.959211 15.959211 0 0 1 15.965017-15.965017h287.370288a15.959211 15.959211 0 0 1 15.965017 15.965017v303.335305a15.959211 15.959211 0 0 1-15.965017 15.965016z m-271.405272-31.930033h255.440256v-271.405272h-255.440256v271.405272z" fill="#1296db" p-id="5703"></path><path d="M384.058296 592.944567h-31.930032c0-56.082682-31.722971-104.922086-78.021517-121.62246-20.322982 12.820392-47.15969 12.820392-67.482671 0-46.283065 16.700374-78.006036 65.539777-78.006036 121.62246h-31.930032c0-73.181698 44.622704-136.772776 108.498249-154.671011 5.108805-1.468781 10.600771-0.224478 14.639436 3.208484 4.181867 3.545201 11.127132 7.777382 20.545524 7.777382s16.365593-4.230245 20.530043-7.75803c4.056082-3.432962 9.532566-4.679201 14.637501-3.21042 63.896832 17.880818 108.519536 81.471896 108.519535 154.653595z" fill="#1296db" p-id="5704"></path><path d="M240.373152 481.189454c-35.217858 0-63.860064-28.640271-63.860064-63.860064v-15.965016c0-35.219793 28.642206-63.860064 63.860064-63.860064 35.219793 0 63.860064 28.640271 63.860064 63.860064v15.965016c0 35.219793-28.640271 63.860064-63.860064 63.860064z m0-111.755112c-17.609896 0-31.930032 14.320136-31.930032 31.930032v15.965016c0 17.607961 14.320136 31.930032 31.930032 31.930032s31.930032-14.322071 31.930032-31.930032v-15.965016c0-17.609896-14.3182-31.930032-31.930032-31.930032zM112.653024 640.839615h143.685144v31.930032h-143.685144zM288.2682 640.839615h63.860064v31.930032h-63.860064zM463.883377 273.644245h175.615176v31.930033h-175.615176zM687.393602 273.644245h175.615176v31.930033h-175.615176zM463.883377 353.469326h79.82508v31.930032h-79.82508zM591.603505 353.469326h63.860064v31.930032h-63.860064zM463.883377 433.294406h79.82508v31.930032h-79.82508zM463.883377 513.119486h31.930032v31.930032h-31.930032zM527.743441 513.119486h31.930032v31.930032h-31.930032zM591.603505 513.119486h31.930032v31.930032h-31.930032zM655.463569 513.119486h143.685145v31.930032h-143.685145zM831.078746 513.119486h95.790096v31.930032h-95.790096zM926.868842 465.224438h-111.755112a15.963081 15.963081 0 0 1-15.965016-15.965016v-79.82508a15.961146 15.961146 0 0 1 15.965016-15.965016h111.755112a15.959211 15.959211 0 0 1 15.965016 15.965016v79.82508a15.959211 15.959211 0 0 1-15.965016 15.965016z m-95.790096-31.930032h79.82508v-47.895048h-79.82508v47.895048z" fill="#1296db" p-id="5705"></path></svg>