<?xml version="1.0" standalone="no"?><!DOCTYPE svg PUBLIC "-//W3C//DTD SVG 1.1//EN" "http://www.w3.org/Graphics/SVG/1.1/DTD/svg11.dtd"><svg t="1589951619525" class="icon" viewBox="0 0 1024 1024" version="1.1" xmlns="http://www.w3.org/2000/svg" p-id="10716" xmlns:xlink="http://www.w3.org/1999/xlink" width="200" height="200"><defs><style type="text/css"></style></defs><path d="M76.8 224h38.4a12.8 12.8 0 0 0 12.8-12.8V134.4a6.4 6.4 0 0 1 6.4-6.4h76.8a12.8 12.8 0 0 0 12.8-12.8V76.8a12.8 12.8 0 0 0-12.8-12.8H76.8a12.8 12.8 0 0 0-12.8 12.8v134.4a12.8 12.8 0 0 0 12.8 12.8zM947.2 64h-134.4a12.8 12.8 0 0 0-12.8 12.8v38.4a12.8 12.8 0 0 0 12.8 12.8h76.8a6.4 6.4 0 0 1 6.4 6.4v76.8a12.8 12.8 0 0 0 12.8 12.8h38.4a12.8 12.8 0 0 0 12.8-12.8V76.8a12.8 12.8 0 0 0-12.8-12.8zM947.2 800h-38.4a12.8 12.8 0 0 0-12.8 12.8v76.8a6.4 6.4 0 0 1-6.4 6.4h-76.8a12.8 12.8 0 0 0-12.8 12.8v38.4a12.8 12.8 0 0 0 12.8 12.8h134.4a12.8 12.8 0 0 0 12.8-12.8v-134.4a12.8 12.8 0 0 0-12.8-12.8zM211.2 896H134.4a6.4 6.4 0 0 1-6.4-6.4v-76.8a12.8 12.8 0 0 0-12.8-12.8H76.8a12.8 12.8 0 0 0-12.8 12.8v134.4a12.8 12.8 0 0 0 12.8 12.8h134.4a12.8 12.8 0 0 0 12.8-12.8v-38.4a12.8 12.8 0 0 0-12.8-12.8zM512 160a352 352 0 1 0 352 352A352 352 0 0 0 512 160z m0 640a288 288 0 1 1 288-288 288 288 0 0 1-288 288z" p-id="10717" fill="#1296db"></path><path d="M416 448m-32 0a32 32 0 1 0 64 0 32 32 0 1 0-64 0Z" p-id="10718" fill="#1296db"></path><path d="M608 448m-32 0a32 32 0 1 0 64 0 32 32 0 1 0-64 0Z" p-id="10719" fill="#1296db"></path><path d="M601.28 576h-178.56a6.4 6.4 0 0 0-6.4 6.72A91.84 91.84 0 0 0 512 672a91.2 91.2 0 0 0 96-88.32 6.4 6.4 0 0 0-6.72-7.68z" p-id="10720" fill="#1296db"></path></svg>