<?xml version="1.0" standalone="no"?><!DOCTYPE svg PUBLIC "-//W3C//DTD SVG 1.1//EN" "http://www.w3.org/Graphics/SVG/1.1/DTD/svg11.dtd"><svg t="1589950530683" class="icon" viewBox="0 0 1024 1024" version="1.1" xmlns="http://www.w3.org/2000/svg" p-id="8617" xmlns:xlink="http://www.w3.org/1999/xlink" width="200" height="200"><defs><style type="text/css"></style></defs><path d="M874.76 213.25a193.1 193.1 0 0 0-5.44-69.94A192.07 192.07 0 0 0 634.13 378.5a192 192 0 0 0 240.63-165.25z m-145.66 25a127.46 127.46 0 0 1 82.48-37.23 128 128 0 0 1-119.71 119.74 127.46 127.46 0 0 1 37.23-82.48zM455.76 312.59a160.63 160.63 0 0 0-9.42-81.08 160 160 0 0 0-207.42 207.42 160 160 0 0 0 216.84-126.34z m-135.75 0a95.76 95.76 0 0 1 73.2-28A96 96 0 0 1 292 385.81a95.74 95.74 0 0 1 28-73.2z" p-id="8618" fill="#1296db"></path><path d="M672.12 320.11a287.66 287.66 0 0 0-234.78 121.16 223.17 223.17 0 0 0-149.28-57c-123.71 0-224 100.29-224 224s100.29 224 224 224a223.14 223.14 0 0 0 149.41-57.13 287.64 287.64 0 0 0 234.65 121c159.06 0 288-128.94 288-288s-128.94-288.03-288-288.03zM405.43 717a160 160 0 1 1 42.63-108.72A159.53 159.53 0 0 1 405.43 717z m266.69 115.11a223.86 223.86 0 0 1-192-108.55 224.14 224.14 0 0 0-0.12-230.75 223.9 223.9 0 0 1 192.08-108.7c123.71 0 224 100.29 224 224s-100.25 224-223.96 224z" p-id="8619" fill="#1296db"></path></svg>