<?xml version="1.0" standalone="no"?><!DOCTYPE svg PUBLIC "-//W3C//DTD SVG 1.1//EN" "http://www.w3.org/Graphics/SVG/1.1/DTD/svg11.dtd"><svg t="1589952052766" class="icon" viewBox="0 0 1404 1024" version="1.1" xmlns="http://www.w3.org/2000/svg" p-id="17747" xmlns:xlink="http://www.w3.org/1999/xlink" width="274.21875" height="200"><defs><style type="text/css"></style></defs><path d="M401.267042 494.469401c-1.262899-3.786522-4.592952-18.932612-11.681269-24.297215 5.390686 9.659762 9.709756 20.458524 12.755059 32.06589a71.937405 71.937405 0 0 0-1.07379-7.768675z" fill="#1296db" p-id="17748"></path><path d="M318.037453 662.469707c46.0382 0 83.929509-46.807677 88.841989-106.965999 0.893376-0.404301 1.671548-1.195515 2.091065-2.462761 3.082255-6.164511 4.623383-21.575787 4.623383-27.740298 0-9.251113 1.541128-18.500053 1.541128-29.285773 0-12.333369 0-24.66239-4.623383-35.452457s-12.329021-20.036833-20.036834-29.287947c-7.705638-7.701291-15.411277-16.950231-26.201344-20.03466-6.166684-1.541128-12.331195 0-18.493532-1.541128-4.623383 3.082255-9.246766 0-13.874496-1.541127-15.411277-6.166684-32.365855-3.084429-47.777132 0-3.082255 0-6.166684 1.541128-7.707812 3.082255s-3.082255 4.623383-4.623383 6.166684c-1.541128 1.538954-4.623383 3.084429-6.164511 4.62121-10.787894 6.164511-16.954578 16.956752-20.036833 29.285773 0 1.543301 0 3.084429-1.541128 4.62773-1.543301 1.541128-1.543301 1.541128-3.082255 1.541128-12.329021 3.082255-18.495706 15.415624-20.036833 29.283599-1.282462 10.264041 3.83869 48.25099 8.255575 68.713862 4.905959 60.167016 42.803789 106.989909 88.846336 106.989909zM390.476975 679.417764l-73.980649 114.054316-73.98065-114.054316c-84.768543 29.29012-146.417997 110.967713-146.417997 206.528497h440.795119c0.002174-95.556437-61.647281-175.701597-146.415823-206.528497zM612.416749 739.265251h221.939774v48.957431H612.416749zM612.416749 620.513647h422.299414v48.957431h-422.299414zM612.416749 502.801055h422.299414v48.957431h-422.299414z" fill="#1296db" p-id="17749"></path><path d="M1093.281188 267.906244H52.941757C23.658157 267.906244 0.543416 291.025333 0.543416 320.308932V970.714804c0 29.283599 23.116915 52.400515 52.398341 52.400515h1040.339431c29.285773 0 52.402688-23.121262 52.402688-52.400515V320.308932c0.002174-29.283599-23.116915-52.402688-52.402688-52.402688zM1053.248821 980.218063H92.976298c-27.031684 0-48.368368-20.534602-48.368368-46.557706V355.817905c0-26.016583 21.336684-46.555532 48.368368-46.555533h960.268176c27.033857 0 48.372715 20.53895 48.372715 46.555533v577.842452h0.002174c0 26.023104-21.338858 46.557706-48.370542 46.557706z" fill="#1296db" p-id="17750"></path><path d="M1379.152764 435.821777L570.491121 7.388283c-22.762608-12.059487-50.252935-3.610456-62.310248 19.152153l-131.191482 247.623786h34.454745l111.145954-209.78682c10.905272-20.582423 36.395828-27.888107 57.78468-16.558971l759.78029 402.534288c21.388852 11.333483 29.661817 36.530595 18.756546 57.110845L1135.382883 929.369544l-18.702204 35.295954a40.880096 40.880096 0 0 1-11.583454 13.594094v5.827592l25.355789 19.615143 267.849728-505.568129c12.061661-22.762608 3.612629-50.252935-19.149978-62.312421z" fill="#1296db" p-id="17751"></path></svg>