<?xml version="1.0" standalone="no"?><!DOCTYPE svg PUBLIC "-//W3C//DTD SVG 1.1//EN" "http://www.w3.org/Graphics/SVG/1.1/DTD/svg11.dtd"><svg t="1589949461244" class="icon" viewBox="0 0 1024 1024" version="1.1" xmlns="http://www.w3.org/2000/svg" p-id="3296" xmlns:xlink="http://www.w3.org/1999/xlink" width="200" height="200"><defs><style type="text/css"></style></defs><path d="M554.695019 246.568783H209.110967c-11.648929 0-19.414047 7.758864-19.414048 19.411546 0 11.658935 7.763868 19.4178 19.414048 19.4178h345.584052c11.65018 0 19.419051-7.758864 19.41905-19.4178 0-11.652681-7.768871-19.411546-19.41905-19.411546zM364.4296 163.085002h38.829345v33.005507h-38.829345zM189.696919 163.085002h38.829346v33.005507H189.696919zM277.065761 163.085002h38.829346v33.005507h-38.829346zM554.695019 331.991342H209.110967c-11.648929 0-19.414047 7.763868-19.414048 19.416549 0 11.648929 7.763868 19.4178 19.414048 19.4178h345.584052c11.65018 0 19.414047-7.768871 19.41905-19.4178 0-11.652681-7.768871-19.416549-19.41905-19.416549zM436.265702 592.573112c-45.87524 0-83.067256 37.187013-83.067256 83.062253 0 45.880243 37.192016 83.07226 83.067256 83.07226s83.066005-37.192016 83.066006-83.07226c0-45.87524-37.184511-83.062253-83.066006-83.062253z m0 132.293455c-27.184169 0-49.223697-22.035776-49.223697-49.226199 0-27.184169 22.038277-49.222446 49.223697-49.222446s49.223697 22.037026 49.223698 49.222446c0.001251 27.190423-22.039528 49.226199-49.223698 49.226199zM381.903618 419.362685H209.112218c-11.647678 0-19.415298 7.763868-19.415299 19.412797 0 11.652681 7.768871 19.416549 19.415299 19.416549h172.7914c11.648929 0 19.4178-9.7089 19.4178-19.416549 0-11.653932-7.76762-19.412797-19.4178-19.412797z" fill="#1296db" p-id="3297"></path><path d="M898.344045 256.706716V93.19143c0-50.478274-40.776879-93.19143-93.193931-93.19143H106.209386C55.729861 0 13.017956 40.768124 13.017956 93.19143v796.012215c0 11.653932 7.763868 19.422803 19.415298 19.422803h318.91147v115.372301h62.201002v-26.86771h-34.896753V842.580412a174.787717 174.787717 0 0 0 57.616729 9.73892c19.909374 0 38.954428-3.224626 56.678612-9.156036V997.132289h-34.887998v26.867711h62.195999v-115.372301h211.120416c11.65018 0 19.419051-9.710151 19.414047-19.4178V477.609831h186.524203c0.666689 0 1.382161-0.028769 2.130155-0.078802 1.021924 0.038776 2.042596 0.078802 3.088285 0.078802 45.109735 0 68.451372-36.567855 68.451372-81.675089V256.706716h-112.636748zM436.265702 813.489986c-75.718662 0-137.844614-62.125952-137.844614-137.849618 0-75.718662 62.125952-137.844614 137.844614-137.844614 77.659942 0 137.843364 62.125952 137.848367 137.844614 0 75.723666-62.129705 137.849618-137.848367 137.849618z m83.987864 56.302113v-38.440339c55.592896-29.890954 92.686097-88.62592 92.686096-155.715144 0-97.068986-79.603723-176.668957-176.672709-176.668957-97.073989 0-176.67396 79.59872-176.67396 176.668957 0 66.364996 37.203274 124.554604 91.752982 154.736999v39.419735H51.847302V93.19143c0-29.1267 23.296607-54.362084 54.362084-54.362084h623.224567c-11.543859 15.386392-17.356441 32.681543-17.465263 53.765441 0 0.200132-0.01501 0.396511-0.01501 0.596643v365.000601c0 0.040026 0.005003 0.0763 0.005004 0.116327v411.483741H520.253566z m232.481997-431.016617V93.19143c0-29.1267 23.291603-54.362084 54.357081-54.362084 29.112941 0 54.357081 23.296607 54.357081 54.362084v291.221968c0 19.416549-1.099475 38.834349 10.544451 54.362084h-119.258613z m233.358825-45.342389c0 31.363174-12.195539 56.789935-43.551208 56.789935-31.363174 0-43.558713-25.426761-43.558713-56.784932v-92.668585c0-3.76248 1.494735-7.373611 4.157741-10.036616a14.209367 14.209367 0 0 1 10.032863-4.152737h72.919317v106.852935z" fill="#1296db" p-id="3298"></path><path d="M435.801647 883.985205c-7.143459 0-11.9091 4.769394-11.909101 11.90785V1024h23.811947V895.893055c0.001251-7.143459-4.764391-11.907849-11.902846-11.90785z" fill="#1296db" p-id="3299"></path></svg>