<?xml version="1.0" standalone="no"?><!DOCTYPE svg PUBLIC "-//W3C//DTD SVG 1.1//EN" "http://www.w3.org/Graphics/SVG/1.1/DTD/svg11.dtd"><svg t="1589950426838" class="icon" viewBox="0 0 1024 1024" version="1.1" xmlns="http://www.w3.org/2000/svg" p-id="6536" xmlns:xlink="http://www.w3.org/1999/xlink" width="200" height="200"><defs><style type="text/css"></style></defs><path d="M480.11 511.95h64v319.92h-64zM254.76 894.73h-64l0.65-254.62h64l-0.65 254.62zM767.04 894.73h64l0.48-254.62h-64l-0.48 254.62z" p-id="6537" fill="#1296db"></path><path d="M831.53 895.79H191.4l63.38-64h512.26l64.49 64zM192.05 129.92a385.8 385.8 0 0 0-64-1.78 386.8 386.8 0 0 0 1.79 64A384 384 0 0 0 468.7 531.05a385.71 385.71 0 0 0 64 1.78 386.8 386.8 0 0 0-1.78-64 384.07 384.07 0 0 0-338.87-338.91zM466.1 466.21a320.06 320.06 0 0 1-271.45-271.45A320.06 320.06 0 0 1 466.1 466.21z" p-id="6538" fill="#1296db"></path><path d="M894.39 192.16a385.71 385.71 0 0 0 1.78-64 383.91 383.91 0 0 0-404.69 404.67 385.71 385.71 0 0 0 64-1.78 384 384 0 0 0 338.91-338.89z m-336.29 274a320.06 320.06 0 0 1 271.45-271.4A320.06 320.06 0 0 1 558.1 466.21z" p-id="6539" fill="#1296db"></path></svg>